<mxfile host="app.diagrams.net" modified="2024-05-08T18:47:52.773Z" agent="Mozilla/5.0 (X11; Linux x86_64) AppleWebKit/537.36 (KHTML, like Gecko) Chrome/124.0.0.0 Safari/537.36" etag="ALIiS4cd-4QCdzRHZdw6" version="24.3.1" type="github">
  <diagram id="C5RBs43oDa-KdzZeNtuy" name="Page-1">
    <mxGraphModel dx="1434" dy="742" grid="1" gridSize="10" guides="1" tooltips="1" connect="1" arrows="1" fold="1" page="1" pageScale="1" pageWidth="827" pageHeight="1169" math="0" shadow="0">
      <root>
        <mxCell id="WIyWlLk6GJQsqaUBKTNV-0" />
        <mxCell id="WIyWlLk6GJQsqaUBKTNV-1" parent="WIyWlLk6GJQsqaUBKTNV-0" />
        <mxCell id="S-wjG19x41BNvVNmMQFC-13" style="edgeStyle=orthogonalEdgeStyle;rounded=0;orthogonalLoop=1;jettySize=auto;html=1;entryX=0.5;entryY=0;entryDx=0;entryDy=0;" edge="1" parent="WIyWlLk6GJQsqaUBKTNV-1" source="S-wjG19x41BNvVNmMQFC-11" target="S-wjG19x41BNvVNmMQFC-15">
          <mxGeometry relative="1" as="geometry">
            <mxPoint x="250" y="230" as="targetPoint" />
          </mxGeometry>
        </mxCell>
        <mxCell id="S-wjG19x41BNvVNmMQFC-23" style="edgeStyle=orthogonalEdgeStyle;rounded=0;orthogonalLoop=1;jettySize=auto;html=1;exitX=0.5;exitY=0;exitDx=0;exitDy=0;entryX=0.5;entryY=1;entryDx=0;entryDy=0;" edge="1" parent="WIyWlLk6GJQsqaUBKTNV-1" source="S-wjG19x41BNvVNmMQFC-11" target="S-wjG19x41BNvVNmMQFC-20">
          <mxGeometry relative="1" as="geometry" />
        </mxCell>
        <mxCell id="S-wjG19x41BNvVNmMQFC-26" style="edgeStyle=orthogonalEdgeStyle;rounded=0;orthogonalLoop=1;jettySize=auto;html=1;" edge="1" parent="WIyWlLk6GJQsqaUBKTNV-1" source="S-wjG19x41BNvVNmMQFC-11" target="S-wjG19x41BNvVNmMQFC-27">
          <mxGeometry relative="1" as="geometry">
            <mxPoint x="90" y="230" as="targetPoint" />
          </mxGeometry>
        </mxCell>
        <mxCell id="S-wjG19x41BNvVNmMQFC-42" style="edgeStyle=orthogonalEdgeStyle;rounded=0;orthogonalLoop=1;jettySize=auto;html=1;exitX=0.5;exitY=0;exitDx=0;exitDy=0;entryX=0.5;entryY=1;entryDx=0;entryDy=0;" edge="1" parent="WIyWlLk6GJQsqaUBKTNV-1" source="S-wjG19x41BNvVNmMQFC-11" target="S-wjG19x41BNvVNmMQFC-18">
          <mxGeometry relative="1" as="geometry" />
        </mxCell>
        <mxCell id="S-wjG19x41BNvVNmMQFC-43" style="edgeStyle=orthogonalEdgeStyle;rounded=0;orthogonalLoop=1;jettySize=auto;html=1;exitX=0.5;exitY=0;exitDx=0;exitDy=0;entryX=0.5;entryY=1;entryDx=0;entryDy=0;" edge="1" parent="WIyWlLk6GJQsqaUBKTNV-1" source="S-wjG19x41BNvVNmMQFC-11" target="S-wjG19x41BNvVNmMQFC-21">
          <mxGeometry relative="1" as="geometry" />
        </mxCell>
        <mxCell id="S-wjG19x41BNvVNmMQFC-44" style="edgeStyle=orthogonalEdgeStyle;rounded=0;orthogonalLoop=1;jettySize=auto;html=1;exitX=0.5;exitY=0;exitDx=0;exitDy=0;entryX=0;entryY=0.5;entryDx=0;entryDy=0;" edge="1" parent="WIyWlLk6GJQsqaUBKTNV-1" source="S-wjG19x41BNvVNmMQFC-11" target="S-wjG19x41BNvVNmMQFC-22">
          <mxGeometry relative="1" as="geometry" />
        </mxCell>
        <mxCell id="S-wjG19x41BNvVNmMQFC-54" style="edgeStyle=orthogonalEdgeStyle;rounded=0;orthogonalLoop=1;jettySize=auto;html=1;" edge="1" parent="WIyWlLk6GJQsqaUBKTNV-1" source="S-wjG19x41BNvVNmMQFC-11" target="S-wjG19x41BNvVNmMQFC-55">
          <mxGeometry relative="1" as="geometry">
            <mxPoint x="470" y="180" as="targetPoint" />
            <Array as="points">
              <mxPoint x="250" y="180" />
              <mxPoint x="451" y="180" />
            </Array>
          </mxGeometry>
        </mxCell>
        <mxCell id="S-wjG19x41BNvVNmMQFC-57" value="(N,1)" style="edgeLabel;html=1;align=center;verticalAlign=middle;resizable=0;points=[];" vertex="1" connectable="0" parent="S-wjG19x41BNvVNmMQFC-54">
          <mxGeometry x="-0.0857" relative="1" as="geometry">
            <mxPoint as="offset" />
          </mxGeometry>
        </mxCell>
        <mxCell id="S-wjG19x41BNvVNmMQFC-11" value="Cliente" style="rounded=0;whiteSpace=wrap;html=1;" vertex="1" parent="WIyWlLk6GJQsqaUBKTNV-1">
          <mxGeometry x="110" y="90" width="120" height="60" as="geometry" />
        </mxCell>
        <mxCell id="S-wjG19x41BNvVNmMQFC-16" style="edgeStyle=orthogonalEdgeStyle;rounded=0;orthogonalLoop=1;jettySize=auto;html=1;" edge="1" parent="WIyWlLk6GJQsqaUBKTNV-1" source="S-wjG19x41BNvVNmMQFC-15" target="S-wjG19x41BNvVNmMQFC-17">
          <mxGeometry relative="1" as="geometry">
            <mxPoint x="340" y="400" as="targetPoint" />
            <Array as="points">
              <mxPoint x="300" y="420" />
              <mxPoint x="120" y="420" />
            </Array>
          </mxGeometry>
        </mxCell>
        <mxCell id="S-wjG19x41BNvVNmMQFC-15" value="Tiene" style="rhombus;whiteSpace=wrap;html=1;" vertex="1" parent="WIyWlLk6GJQsqaUBKTNV-1">
          <mxGeometry x="220" y="250" width="80" height="80" as="geometry" />
        </mxCell>
        <mxCell id="S-wjG19x41BNvVNmMQFC-37" style="edgeStyle=orthogonalEdgeStyle;rounded=0;orthogonalLoop=1;jettySize=auto;html=1;entryX=0.5;entryY=0;entryDx=0;entryDy=0;" edge="1" parent="WIyWlLk6GJQsqaUBKTNV-1" source="S-wjG19x41BNvVNmMQFC-17" target="S-wjG19x41BNvVNmMQFC-34">
          <mxGeometry relative="1" as="geometry">
            <mxPoint x="120" y="530" as="targetPoint" />
          </mxGeometry>
        </mxCell>
        <mxCell id="S-wjG19x41BNvVNmMQFC-38" style="edgeStyle=orthogonalEdgeStyle;rounded=0;orthogonalLoop=1;jettySize=auto;html=1;exitX=0.5;exitY=1;exitDx=0;exitDy=0;entryX=0.5;entryY=0;entryDx=0;entryDy=0;" edge="1" parent="WIyWlLk6GJQsqaUBKTNV-1" source="S-wjG19x41BNvVNmMQFC-17" target="S-wjG19x41BNvVNmMQFC-35">
          <mxGeometry relative="1" as="geometry" />
        </mxCell>
        <mxCell id="S-wjG19x41BNvVNmMQFC-39" style="edgeStyle=orthogonalEdgeStyle;rounded=0;orthogonalLoop=1;jettySize=auto;html=1;exitX=0.5;exitY=1;exitDx=0;exitDy=0;entryX=0;entryY=0.5;entryDx=0;entryDy=0;" edge="1" parent="WIyWlLk6GJQsqaUBKTNV-1" source="S-wjG19x41BNvVNmMQFC-17" target="S-wjG19x41BNvVNmMQFC-36">
          <mxGeometry relative="1" as="geometry" />
        </mxCell>
        <mxCell id="S-wjG19x41BNvVNmMQFC-17" value="Compras" style="rounded=0;whiteSpace=wrap;html=1;" vertex="1" parent="WIyWlLk6GJQsqaUBKTNV-1">
          <mxGeometry x="60" y="440" width="120" height="60" as="geometry" />
        </mxCell>
        <mxCell id="S-wjG19x41BNvVNmMQFC-18" value="&lt;u style=&quot;&quot;&gt;ID&lt;/u&gt;" style="ellipse;whiteSpace=wrap;html=1;rounded=0;" vertex="1" parent="WIyWlLk6GJQsqaUBKTNV-1">
          <mxGeometry x="10" y="20" width="80" height="30" as="geometry" />
        </mxCell>
        <mxCell id="S-wjG19x41BNvVNmMQFC-20" value="Nombre" style="ellipse;whiteSpace=wrap;html=1;rounded=0;" vertex="1" parent="WIyWlLk6GJQsqaUBKTNV-1">
          <mxGeometry x="120" y="10" width="80" height="30" as="geometry" />
        </mxCell>
        <mxCell id="S-wjG19x41BNvVNmMQFC-21" value="Apellidos" style="ellipse;whiteSpace=wrap;html=1;rounded=0;" vertex="1" parent="WIyWlLk6GJQsqaUBKTNV-1">
          <mxGeometry x="254" y="20" width="80" height="30" as="geometry" />
        </mxCell>
        <mxCell id="S-wjG19x41BNvVNmMQFC-22" value="Email" style="ellipse;whiteSpace=wrap;html=1;rounded=0;" vertex="1" parent="WIyWlLk6GJQsqaUBKTNV-1">
          <mxGeometry x="280" y="90" width="80" height="30" as="geometry" />
        </mxCell>
        <mxCell id="S-wjG19x41BNvVNmMQFC-28" style="edgeStyle=orthogonalEdgeStyle;rounded=0;orthogonalLoop=1;jettySize=auto;html=1;" edge="1" parent="WIyWlLk6GJQsqaUBKTNV-1" source="S-wjG19x41BNvVNmMQFC-27" target="S-wjG19x41BNvVNmMQFC-29">
          <mxGeometry relative="1" as="geometry">
            <mxPoint x="180" y="370" as="targetPoint" />
          </mxGeometry>
        </mxCell>
        <mxCell id="S-wjG19x41BNvVNmMQFC-27" value="Posee" style="rhombus;whiteSpace=wrap;html=1;" vertex="1" parent="WIyWlLk6GJQsqaUBKTNV-1">
          <mxGeometry x="30" y="200" width="80" height="80" as="geometry" />
        </mxCell>
        <mxCell id="S-wjG19x41BNvVNmMQFC-32" style="edgeStyle=orthogonalEdgeStyle;rounded=0;orthogonalLoop=1;jettySize=auto;html=1;exitX=0;exitY=0.25;exitDx=0;exitDy=0;entryX=1;entryY=0.5;entryDx=0;entryDy=0;" edge="1" parent="WIyWlLk6GJQsqaUBKTNV-1" source="S-wjG19x41BNvVNmMQFC-29" target="S-wjG19x41BNvVNmMQFC-30">
          <mxGeometry relative="1" as="geometry" />
        </mxCell>
        <mxCell id="S-wjG19x41BNvVNmMQFC-40" style="edgeStyle=orthogonalEdgeStyle;rounded=0;orthogonalLoop=1;jettySize=auto;html=1;exitX=0;exitY=0.25;exitDx=0;exitDy=0;entryX=1;entryY=0;entryDx=0;entryDy=0;" edge="1" parent="WIyWlLk6GJQsqaUBKTNV-1" source="S-wjG19x41BNvVNmMQFC-29" target="S-wjG19x41BNvVNmMQFC-31">
          <mxGeometry relative="1" as="geometry">
            <Array as="points">
              <mxPoint x="110" y="355" />
              <mxPoint x="110" y="394" />
            </Array>
          </mxGeometry>
        </mxCell>
        <mxCell id="S-wjG19x41BNvVNmMQFC-29" value="Contacto" style="rounded=0;whiteSpace=wrap;html=1;" vertex="1" parent="WIyWlLk6GJQsqaUBKTNV-1">
          <mxGeometry x="120" y="340" width="120" height="60" as="geometry" />
        </mxCell>
        <mxCell id="S-wjG19x41BNvVNmMQFC-30" value="Mensaje" style="ellipse;whiteSpace=wrap;html=1;rounded=0;" vertex="1" parent="WIyWlLk6GJQsqaUBKTNV-1">
          <mxGeometry x="10" y="340" width="80" height="30" as="geometry" />
        </mxCell>
        <mxCell id="S-wjG19x41BNvVNmMQFC-31" value="&lt;u style=&quot;&quot;&gt;ID&lt;/u&gt;" style="ellipse;whiteSpace=wrap;html=1;rounded=0;" vertex="1" parent="WIyWlLk6GJQsqaUBKTNV-1">
          <mxGeometry x="20" y="390" width="80" height="30" as="geometry" />
        </mxCell>
        <mxCell id="S-wjG19x41BNvVNmMQFC-34" value="&lt;u style=&quot;&quot;&gt;ID&lt;/u&gt;" style="ellipse;whiteSpace=wrap;html=1;rounded=0;" vertex="1" parent="WIyWlLk6GJQsqaUBKTNV-1">
          <mxGeometry x="10" y="530" width="80" height="30" as="geometry" />
        </mxCell>
        <mxCell id="S-wjG19x41BNvVNmMQFC-35" value="Actividades" style="ellipse;whiteSpace=wrap;html=1;rounded=0;" vertex="1" parent="WIyWlLk6GJQsqaUBKTNV-1">
          <mxGeometry x="120" y="540" width="80" height="30" as="geometry" />
        </mxCell>
        <mxCell id="S-wjG19x41BNvVNmMQFC-36" value="Plazos" style="ellipse;whiteSpace=wrap;html=1;rounded=0;" vertex="1" parent="WIyWlLk6GJQsqaUBKTNV-1">
          <mxGeometry x="210" y="500" width="80" height="30" as="geometry" />
        </mxCell>
        <mxCell id="S-wjG19x41BNvVNmMQFC-50" style="edgeStyle=orthogonalEdgeStyle;rounded=0;orthogonalLoop=1;jettySize=auto;html=1;entryX=0.5;entryY=1;entryDx=0;entryDy=0;" edge="1" parent="WIyWlLk6GJQsqaUBKTNV-1" source="S-wjG19x41BNvVNmMQFC-45" target="S-wjG19x41BNvVNmMQFC-47">
          <mxGeometry relative="1" as="geometry" />
        </mxCell>
        <mxCell id="S-wjG19x41BNvVNmMQFC-51" style="edgeStyle=orthogonalEdgeStyle;rounded=0;orthogonalLoop=1;jettySize=auto;html=1;entryX=0.5;entryY=1;entryDx=0;entryDy=0;" edge="1" parent="WIyWlLk6GJQsqaUBKTNV-1" source="S-wjG19x41BNvVNmMQFC-45" target="S-wjG19x41BNvVNmMQFC-48">
          <mxGeometry relative="1" as="geometry" />
        </mxCell>
        <mxCell id="S-wjG19x41BNvVNmMQFC-52" style="edgeStyle=orthogonalEdgeStyle;rounded=0;orthogonalLoop=1;jettySize=auto;html=1;entryX=1;entryY=0.5;entryDx=0;entryDy=0;" edge="1" parent="WIyWlLk6GJQsqaUBKTNV-1" source="S-wjG19x41BNvVNmMQFC-45" target="S-wjG19x41BNvVNmMQFC-46">
          <mxGeometry relative="1" as="geometry">
            <Array as="points">
              <mxPoint x="650" y="70" />
              <mxPoint x="568" y="70" />
              <mxPoint x="568" y="45" />
            </Array>
          </mxGeometry>
        </mxCell>
        <mxCell id="S-wjG19x41BNvVNmMQFC-53" style="edgeStyle=orthogonalEdgeStyle;rounded=0;orthogonalLoop=1;jettySize=auto;html=1;exitX=0.5;exitY=0;exitDx=0;exitDy=0;entryX=1;entryY=0.5;entryDx=0;entryDy=0;" edge="1" parent="WIyWlLk6GJQsqaUBKTNV-1" source="S-wjG19x41BNvVNmMQFC-45" target="S-wjG19x41BNvVNmMQFC-49">
          <mxGeometry relative="1" as="geometry">
            <Array as="points">
              <mxPoint x="650" y="70" />
              <mxPoint x="580" y="70" />
              <mxPoint x="580" y="105" />
            </Array>
          </mxGeometry>
        </mxCell>
        <mxCell id="S-wjG19x41BNvVNmMQFC-45" value="Usuario" style="rounded=0;whiteSpace=wrap;html=1;" vertex="1" parent="WIyWlLk6GJQsqaUBKTNV-1">
          <mxGeometry x="590" y="90" width="120" height="60" as="geometry" />
        </mxCell>
        <mxCell id="S-wjG19x41BNvVNmMQFC-46" value="&lt;u style=&quot;&quot;&gt;ID&lt;/u&gt;" style="ellipse;whiteSpace=wrap;html=1;rounded=0;" vertex="1" parent="WIyWlLk6GJQsqaUBKTNV-1">
          <mxGeometry x="465" y="30" width="80" height="30" as="geometry" />
        </mxCell>
        <mxCell id="S-wjG19x41BNvVNmMQFC-47" value="Nombre" style="ellipse;whiteSpace=wrap;html=1;rounded=0;" vertex="1" parent="WIyWlLk6GJQsqaUBKTNV-1">
          <mxGeometry x="590" y="20" width="80" height="30" as="geometry" />
        </mxCell>
        <mxCell id="S-wjG19x41BNvVNmMQFC-48" value="Email" style="ellipse;whiteSpace=wrap;html=1;rounded=0;" vertex="1" parent="WIyWlLk6GJQsqaUBKTNV-1">
          <mxGeometry x="700" y="20" width="80" height="30" as="geometry" />
        </mxCell>
        <mxCell id="S-wjG19x41BNvVNmMQFC-49" value="Contraseña" style="ellipse;whiteSpace=wrap;html=1;rounded=0;" vertex="1" parent="WIyWlLk6GJQsqaUBKTNV-1">
          <mxGeometry x="480" y="90" width="80" height="30" as="geometry" />
        </mxCell>
        <mxCell id="S-wjG19x41BNvVNmMQFC-56" style="edgeStyle=orthogonalEdgeStyle;rounded=0;orthogonalLoop=1;jettySize=auto;html=1;entryX=0;entryY=0.75;entryDx=0;entryDy=0;" edge="1" parent="WIyWlLk6GJQsqaUBKTNV-1" source="S-wjG19x41BNvVNmMQFC-55" target="S-wjG19x41BNvVNmMQFC-45">
          <mxGeometry relative="1" as="geometry" />
        </mxCell>
        <mxCell id="S-wjG19x41BNvVNmMQFC-58" value="(N,1)" style="edgeLabel;html=1;align=center;verticalAlign=middle;resizable=0;points=[];" vertex="1" connectable="0" parent="S-wjG19x41BNvVNmMQFC-56">
          <mxGeometry x="0.008" y="2" relative="1" as="geometry">
            <mxPoint as="offset" />
          </mxGeometry>
        </mxCell>
        <mxCell id="S-wjG19x41BNvVNmMQFC-55" value="Ingresa" style="rhombus;whiteSpace=wrap;html=1;" vertex="1" parent="WIyWlLk6GJQsqaUBKTNV-1">
          <mxGeometry x="300" y="130" width="80" height="80" as="geometry" />
        </mxCell>
        <mxCell id="S-wjG19x41BNvVNmMQFC-64" style="edgeStyle=orthogonalEdgeStyle;rounded=0;orthogonalLoop=1;jettySize=auto;html=1;entryX=1;entryY=0.5;entryDx=0;entryDy=0;" edge="1" parent="WIyWlLk6GJQsqaUBKTNV-1" source="S-wjG19x41BNvVNmMQFC-59" target="S-wjG19x41BNvVNmMQFC-60">
          <mxGeometry relative="1" as="geometry" />
        </mxCell>
        <mxCell id="S-wjG19x41BNvVNmMQFC-65" style="edgeStyle=orthogonalEdgeStyle;rounded=0;orthogonalLoop=1;jettySize=auto;html=1;entryX=1;entryY=0.5;entryDx=0;entryDy=0;" edge="1" parent="WIyWlLk6GJQsqaUBKTNV-1" source="S-wjG19x41BNvVNmMQFC-59" target="S-wjG19x41BNvVNmMQFC-61">
          <mxGeometry relative="1" as="geometry" />
        </mxCell>
        <mxCell id="S-wjG19x41BNvVNmMQFC-66" style="edgeStyle=orthogonalEdgeStyle;rounded=0;orthogonalLoop=1;jettySize=auto;html=1;entryX=0;entryY=0.5;entryDx=0;entryDy=0;exitX=0.5;exitY=0;exitDx=0;exitDy=0;" edge="1" parent="WIyWlLk6GJQsqaUBKTNV-1" source="S-wjG19x41BNvVNmMQFC-59" target="S-wjG19x41BNvVNmMQFC-62">
          <mxGeometry relative="1" as="geometry">
            <mxPoint x="730" y="384.39" as="sourcePoint" />
            <mxPoint x="761.7157287525379" y="229.99660171779828" as="targetPoint" />
            <Array as="points">
              <mxPoint x="660" y="335" />
            </Array>
          </mxGeometry>
        </mxCell>
        <mxCell id="S-wjG19x41BNvVNmMQFC-67" style="edgeStyle=orthogonalEdgeStyle;rounded=0;orthogonalLoop=1;jettySize=auto;html=1;entryX=0;entryY=1;entryDx=0;entryDy=0;" edge="1" parent="WIyWlLk6GJQsqaUBKTNV-1" source="S-wjG19x41BNvVNmMQFC-59" target="S-wjG19x41BNvVNmMQFC-63">
          <mxGeometry relative="1" as="geometry">
            <Array as="points">
              <mxPoint x="640" y="310" />
              <mxPoint x="670" y="310" />
              <mxPoint x="670" y="290" />
              <mxPoint x="662" y="290" />
            </Array>
          </mxGeometry>
        </mxCell>
        <mxCell id="S-wjG19x41BNvVNmMQFC-68" style="edgeStyle=orthogonalEdgeStyle;rounded=0;orthogonalLoop=1;jettySize=auto;html=1;" edge="1" parent="WIyWlLk6GJQsqaUBKTNV-1" source="S-wjG19x41BNvVNmMQFC-59" target="S-wjG19x41BNvVNmMQFC-69">
          <mxGeometry relative="1" as="geometry">
            <mxPoint x="640" y="210" as="targetPoint" />
          </mxGeometry>
        </mxCell>
        <mxCell id="S-wjG19x41BNvVNmMQFC-59" value="Trabajador" style="rounded=0;whiteSpace=wrap;html=1;" vertex="1" parent="WIyWlLk6GJQsqaUBKTNV-1">
          <mxGeometry x="600" y="350" width="120" height="60" as="geometry" />
        </mxCell>
        <mxCell id="S-wjG19x41BNvVNmMQFC-60" value="&lt;u style=&quot;&quot;&gt;ID&lt;/u&gt;" style="ellipse;whiteSpace=wrap;html=1;rounded=0;" vertex="1" parent="WIyWlLk6GJQsqaUBKTNV-1">
          <mxGeometry x="500" y="230" width="80" height="30" as="geometry" />
        </mxCell>
        <mxCell id="S-wjG19x41BNvVNmMQFC-61" value="Nombre" style="ellipse;whiteSpace=wrap;html=1;rounded=0;" vertex="1" parent="WIyWlLk6GJQsqaUBKTNV-1">
          <mxGeometry x="500" y="290" width="80" height="30" as="geometry" />
        </mxCell>
        <mxCell id="S-wjG19x41BNvVNmMQFC-62" value="Contraseña" style="ellipse;whiteSpace=wrap;html=1;rounded=0;" vertex="1" parent="WIyWlLk6GJQsqaUBKTNV-1">
          <mxGeometry x="740" y="320" width="80" height="30" as="geometry" />
        </mxCell>
        <mxCell id="S-wjG19x41BNvVNmMQFC-63" value="Email" style="ellipse;whiteSpace=wrap;html=1;rounded=0;" vertex="1" parent="WIyWlLk6GJQsqaUBKTNV-1">
          <mxGeometry x="680" y="270" width="80" height="30" as="geometry" />
        </mxCell>
        <mxCell id="S-wjG19x41BNvVNmMQFC-70" style="edgeStyle=orthogonalEdgeStyle;rounded=0;orthogonalLoop=1;jettySize=auto;html=1;entryX=0.5;entryY=1;entryDx=0;entryDy=0;" edge="1" parent="WIyWlLk6GJQsqaUBKTNV-1" source="S-wjG19x41BNvVNmMQFC-69" target="S-wjG19x41BNvVNmMQFC-45">
          <mxGeometry relative="1" as="geometry" />
        </mxCell>
        <mxCell id="S-wjG19x41BNvVNmMQFC-69" value="Accede" style="rhombus;whiteSpace=wrap;html=1;" vertex="1" parent="WIyWlLk6GJQsqaUBKTNV-1">
          <mxGeometry x="620" y="205" width="80" height="80" as="geometry" />
        </mxCell>
        <mxCell id="S-wjG19x41BNvVNmMQFC-71" style="edgeStyle=orthogonalEdgeStyle;rounded=0;orthogonalLoop=1;jettySize=auto;html=1;exitX=0.5;exitY=1;exitDx=0;exitDy=0;" edge="1" parent="WIyWlLk6GJQsqaUBKTNV-1" source="S-wjG19x41BNvVNmMQFC-63" target="S-wjG19x41BNvVNmMQFC-63">
          <mxGeometry relative="1" as="geometry" />
        </mxCell>
        <mxCell id="S-wjG19x41BNvVNmMQFC-77" style="edgeStyle=orthogonalEdgeStyle;rounded=0;orthogonalLoop=1;jettySize=auto;html=1;entryX=1;entryY=0.5;entryDx=0;entryDy=0;" edge="1" parent="WIyWlLk6GJQsqaUBKTNV-1" source="S-wjG19x41BNvVNmMQFC-72" target="S-wjG19x41BNvVNmMQFC-73">
          <mxGeometry relative="1" as="geometry" />
        </mxCell>
        <mxCell id="S-wjG19x41BNvVNmMQFC-82" style="edgeStyle=orthogonalEdgeStyle;rounded=0;orthogonalLoop=1;jettySize=auto;html=1;entryX=0.5;entryY=1;entryDx=0;entryDy=0;" edge="1" parent="WIyWlLk6GJQsqaUBKTNV-1" source="S-wjG19x41BNvVNmMQFC-72" target="S-wjG19x41BNvVNmMQFC-84">
          <mxGeometry relative="1" as="geometry">
            <mxPoint x="430" y="300" as="targetPoint" />
          </mxGeometry>
        </mxCell>
        <mxCell id="S-wjG19x41BNvVNmMQFC-86" style="edgeStyle=orthogonalEdgeStyle;rounded=0;orthogonalLoop=1;jettySize=auto;html=1;exitX=1;exitY=0;exitDx=0;exitDy=0;entryX=0.5;entryY=1;entryDx=0;entryDy=0;" edge="1" parent="WIyWlLk6GJQsqaUBKTNV-1" source="S-wjG19x41BNvVNmMQFC-72" target="S-wjG19x41BNvVNmMQFC-75">
          <mxGeometry relative="1" as="geometry" />
        </mxCell>
        <mxCell id="S-wjG19x41BNvVNmMQFC-89" style="edgeStyle=orthogonalEdgeStyle;rounded=0;orthogonalLoop=1;jettySize=auto;html=1;exitX=0;exitY=0.5;exitDx=0;exitDy=0;entryX=1;entryY=0.5;entryDx=0;entryDy=0;" edge="1" parent="WIyWlLk6GJQsqaUBKTNV-1" source="S-wjG19x41BNvVNmMQFC-72" target="S-wjG19x41BNvVNmMQFC-74">
          <mxGeometry relative="1" as="geometry" />
        </mxCell>
        <mxCell id="S-wjG19x41BNvVNmMQFC-90" style="edgeStyle=orthogonalEdgeStyle;rounded=0;orthogonalLoop=1;jettySize=auto;html=1;exitX=1;exitY=0.5;exitDx=0;exitDy=0;entryX=0;entryY=0.5;entryDx=0;entryDy=0;" edge="1" parent="WIyWlLk6GJQsqaUBKTNV-1" source="S-wjG19x41BNvVNmMQFC-72" target="S-wjG19x41BNvVNmMQFC-76">
          <mxGeometry relative="1" as="geometry" />
        </mxCell>
        <mxCell id="S-wjG19x41BNvVNmMQFC-72" value="Desarrolador" style="rounded=0;whiteSpace=wrap;html=1;" vertex="1" parent="WIyWlLk6GJQsqaUBKTNV-1">
          <mxGeometry x="390" y="540" width="120" height="60" as="geometry" />
        </mxCell>
        <mxCell id="S-wjG19x41BNvVNmMQFC-73" value="&lt;u style=&quot;&quot;&gt;ID&lt;/u&gt;" style="ellipse;whiteSpace=wrap;html=1;rounded=0;" vertex="1" parent="WIyWlLk6GJQsqaUBKTNV-1">
          <mxGeometry x="334" y="500" width="80" height="30" as="geometry" />
        </mxCell>
        <mxCell id="S-wjG19x41BNvVNmMQFC-74" value="Nombre" style="ellipse;whiteSpace=wrap;html=1;rounded=0;" vertex="1" parent="WIyWlLk6GJQsqaUBKTNV-1">
          <mxGeometry x="290" y="555" width="80" height="30" as="geometry" />
        </mxCell>
        <mxCell id="S-wjG19x41BNvVNmMQFC-75" value="Email" style="ellipse;whiteSpace=wrap;html=1;rounded=0;" vertex="1" parent="WIyWlLk6GJQsqaUBKTNV-1">
          <mxGeometry x="500" y="500" width="80" height="30" as="geometry" />
        </mxCell>
        <mxCell id="S-wjG19x41BNvVNmMQFC-76" value="Contraseña" style="ellipse;whiteSpace=wrap;html=1;rounded=0;" vertex="1" parent="WIyWlLk6GJQsqaUBKTNV-1">
          <mxGeometry x="545" y="555" width="80" height="30" as="geometry" />
        </mxCell>
        <mxCell id="S-wjG19x41BNvVNmMQFC-85" style="edgeStyle=orthogonalEdgeStyle;rounded=0;orthogonalLoop=1;jettySize=auto;html=1;entryX=0;entryY=1;entryDx=0;entryDy=0;" edge="1" parent="WIyWlLk6GJQsqaUBKTNV-1" source="S-wjG19x41BNvVNmMQFC-84" target="S-wjG19x41BNvVNmMQFC-45">
          <mxGeometry relative="1" as="geometry">
            <Array as="points">
              <mxPoint x="425" y="200" />
              <mxPoint x="590" y="200" />
            </Array>
          </mxGeometry>
        </mxCell>
        <mxCell id="S-wjG19x41BNvVNmMQFC-84" value="Accede" style="rhombus;whiteSpace=wrap;html=1;" vertex="1" parent="WIyWlLk6GJQsqaUBKTNV-1">
          <mxGeometry x="385" y="260" width="80" height="80" as="geometry" />
        </mxCell>
      </root>
    </mxGraphModel>
  </diagram>
</mxfile>
